<?xml version="1.0" standalone="no"?><svg xmlns:xlink="http://www.w3.org/1999/xlink" xmlns="http://www.w3.org/2000/svg" viewBox="0 0 1000 600" preserveAspectRatio="xMaxYMax slice"><g transform="scale(1.1494252873563218)"><rect x="0" y="0" width="870" height="522" fill="#071330"/><g transform="translate(8.7,8.7) scale(3.4799999999999995) rotate(0)"><path d="M10 5L5 0L0 5L5 10L0 15L5 20L10 15L15 20L20 15L15 10L20 5L15 0L10 5Z" fill="#14203c"/></g><g transform="translate(95.7,8.7) scale(3.4799999999999995) rotate(0)"><rect width="20" height="2" fill="#081a37"/><rect y="4" width="20" height="2" fill="#081a37"/><rect y="8" width="20" height="2" fill="#081a37"/><rect y="12" width="20" height="2" fill="#081a37"/><rect y="16" width="20" height="2" fill="#081a37"/></g><g transform="translate(182.7,8.7) scale(3.4799999999999995) rotate(0)"><path d="M10 5L5 0L0 5L5 10L0 15L5 20L10 15L15 20L20 15L15 10L20 5L15 0L10 5Z" fill="#0b3856"/></g><rect x="269.7" y="8.700000000000001" width="69.6" height="69.6" fill="#071330"/><g transform="translate(269.7,8.7) scale(1.7399999999999998) rotate(0)"><path d="M10 5L5 0L0 5L5 10L0 15L5 20L10 15L15 20L20 15L15 10L20 5L15 0L10 5Z" fill="#a0abbb"/></g><g transform="translate(304.5,8.7) scale(1.7399999999999998) rotate(0)"><path d="M10 5L5 0L0 5L5 10L0 15L5 20L10 15L15 20L20 15L15 10L20 5L15 0L10 5Z" fill="#949faf"/></g><g transform="translate(269.7,43.5) scale(1.7399999999999998) rotate(0)"><path d="M10 5L5 0L0 5L5 10L0 15L5 20L10 15L15 20L20 15L15 10L20 5L15 0L10 5Z" fill="#798597"/></g><g transform="translate(304.5,43.5) scale(1.7399999999999998) rotate(0)"><path d="M10 5L5 0L0 5L5 10L0 15L5 20L10 15L15 20L20 15L15 10L20 5L15 0L10 5Z" fill="#636f83"/></g><g transform="translate(356.7,8.7) scale(3.4799999999999995) rotate(0)"><path d="M10 5L5 0L0 5L5 10L0 15L5 20L10 15L15 20L20 15L15 10L20 5L15 0L10 5Z" fill="#081c3a"/></g><g transform="translate(443.7,8.7) scale(3.4799999999999995) rotate(0)"><path d="M10 5L5 0L0 5L5 10L0 15L5 20L10 15L15 20L20 15L15 10L20 5L15 0L10 5Z" fill="#313c56"/></g><g transform="translate(530.7,8.7) scale(3.4799999999999995) rotate(0)"><path d="M10 5L5 0L0 5L5 10L0 15L5 20L10 15L15 20L20 15L15 10L20 5L15 0L10 5Z" fill="#586479"/></g><g transform="translate(617.7,8.7) scale(3.4799999999999995) rotate(0)"><rect width="20" height="2" fill="#09213f"/><rect y="4" width="20" height="2" fill="#09213f"/><rect y="8" width="20" height="2" fill="#09213f"/><rect y="12" width="20" height="2" fill="#09213f"/><rect y="16" width="20" height="2" fill="#09213f"/></g><g transform="translate(704.7,8.7) scale(3.4799999999999995) rotate(0)"><path d="M10 5L5 0L0 5L5 10L0 15L5 20L10 15L15 20L20 15L15 10L20 5L15 0L10 5Z" fill="#0c4160"/></g><g transform="translate(791.7,8.7) scale(3.4799999999999995) rotate(0)"><rect width="20" height="2" fill="#092441"/><rect y="4" width="20" height="2" fill="#092441"/><rect y="8" width="20" height="2" fill="#092441"/><rect y="12" width="20" height="2" fill="#092441"/><rect y="16" width="20" height="2" fill="#092441"/></g><g transform="translate(8.7,95.7) scale(3.4799999999999995) rotate(0)"><rect width="20" height="2" fill="#081431"/><rect y="4" width="20" height="2" fill="#081431"/><rect y="8" width="20" height="2" fill="#081431"/><rect y="12" width="20" height="2" fill="#081431"/><rect y="16" width="20" height="2" fill="#081431"/></g><g transform="translate(95.7,95.7) scale(3.4799999999999995) rotate(0)"><path d="M10 5L5 0L0 5L5 10L0 15L5 20L10 15L15 20L20 15L15 10L20 5L15 0L10 5Z" fill="#354159"/></g><rect x="182.7" y="95.7" width="69.6" height="69.6" fill="#071330"/><g transform="translate(182.7,95.7) scale(1.7399999999999998) rotate(0)"><rect width="20" height="2" fill="#333f58"/><rect y="4" width="20" height="2" fill="#333f58"/><rect y="8" width="20" height="2" fill="#333f58"/><rect y="12" width="20" height="2" fill="#333f58"/><rect y="16" width="20" height="2" fill="#333f58"/></g><g transform="translate(217.5,95.7) scale(1.7399999999999998) rotate(0)"><rect width="20" height="2" fill="#0c3c5b"/><rect y="4" width="20" height="2" fill="#0c3c5b"/><rect y="8" width="20" height="2" fill="#0c3c5b"/><rect y="12" width="20" height="2" fill="#0c3c5b"/><rect y="16" width="20" height="2" fill="#0c3c5b"/></g><g transform="translate(182.7,130.5) scale(1.7399999999999998) rotate(0)"><path d="M10 5L5 0L0 5L5 10L0 15L5 20L10 15L15 20L20 15L15 10L20 5L15 0L10 5Z" fill="#0c3d5c"/></g><g transform="translate(217.5,130.5) scale(1.7399999999999998) rotate(0)"><path d="M10 5L5 0L0 5L5 10L0 15L5 20L10 15L15 20L20 15L15 10L20 5L15 0L10 5Z" fill="#c3ceda"/></g><g transform="translate(269.7,95.7) scale(3.4799999999999995) rotate(0)"><rect width="20" height="2" fill="#0b3452"/><rect y="4" width="20" height="2" fill="#0b3452"/><rect y="8" width="20" height="2" fill="#0b3452"/><rect y="12" width="20" height="2" fill="#0b3452"/><rect y="16" width="20" height="2" fill="#0b3452"/></g><rect x="356.7" y="95.7" width="69.6" height="69.6" fill="#071330"/><g transform="translate(356.7,95.7) scale(1.7399999999999998) rotate(0)"><path d="M10 5L5 0L0 5L5 10L0 15L5 20L10 15L15 20L20 15L15 10L20 5L15 0L10 5Z" fill="#092745"/></g><g transform="translate(391.5,95.7) scale(1.7399999999999998) rotate(0)"><path d="M10 5L5 0L0 5L5 10L0 15L5 20L10 15L15 20L20 15L15 10L20 5L15 0L10 5Z" fill="#0c3d5c"/></g><g transform="translate(356.7,130.5) scale(1.7399999999999998) rotate(0)"><rect width="20" height="2" fill="#b3becc"/><rect y="4" width="20" height="2" fill="#b3becc"/><rect y="8" width="20" height="2" fill="#b3becc"/><rect y="12" width="20" height="2" fill="#b3becc"/><rect y="16" width="20" height="2" fill="#b3becc"/></g><g transform="translate(391.5,130.5) scale(1.7399999999999998) rotate(0)"><path d="M10 5L5 0L0 5L5 10L0 15L5 20L10 15L15 20L20 15L15 10L20 5L15 0L10 5Z" fill="#7c889a"/></g><g transform="translate(443.7,95.7) scale(3.4799999999999995) rotate(0)"><rect width="20" height="2" fill="#092947"/><rect y="4" width="20" height="2" fill="#092947"/><rect y="8" width="20" height="2" fill="#092947"/><rect y="12" width="20" height="2" fill="#092947"/><rect y="16" width="20" height="2" fill="#092947"/></g><g transform="translate(530.7,95.7) scale(3.4799999999999995) rotate(0)"><rect width="20" height="2" fill="#b2bdcb"/><rect y="4" width="20" height="2" fill="#b2bdcb"/><rect y="8" width="20" height="2" fill="#b2bdcb"/><rect y="12" width="20" height="2" fill="#b2bdcb"/><rect y="16" width="20" height="2" fill="#b2bdcb"/></g><g transform="translate(617.7,95.7) scale(3.4799999999999995) rotate(0)"><path d="M10 5L5 0L0 5L5 10L0 15L5 20L10 15L15 20L20 15L15 10L20 5L15 0L10 5Z" fill="#092846"/></g><g transform="translate(704.7,95.7) scale(3.4799999999999995) rotate(0)"><rect width="20" height="2" fill="#414d64"/><rect y="4" width="20" height="2" fill="#414d64"/><rect y="8" width="20" height="2" fill="#414d64"/><rect y="12" width="20" height="2" fill="#414d64"/><rect y="16" width="20" height="2" fill="#414d64"/></g><g transform="translate(791.7,95.7) scale(3.4799999999999995) rotate(0)"><path d="M10 5L5 0L0 5L5 10L0 15L5 20L10 15L15 20L20 15L15 10L20 5L15 0L10 5Z" fill="#081836"/></g><rect x="8.700000000000001" y="182.7" width="69.6" height="69.6" fill="#071330"/><g transform="translate(8.7,182.7) scale(1.7399999999999998) rotate(0)"><rect width="20" height="2" fill="#8691a3"/><rect y="4" width="20" height="2" fill="#8691a3"/><rect y="8" width="20" height="2" fill="#8691a3"/><rect y="12" width="20" height="2" fill="#8691a3"/><rect y="16" width="20" height="2" fill="#8691a3"/></g><g transform="translate(43.5,182.7) scale(1.7399999999999998) rotate(0)"><path d="M10 5L5 0L0 5L5 10L0 15L5 20L10 15L15 20L20 15L15 10L20 5L15 0L10 5Z" fill="#404c63"/></g><g transform="translate(8.7,217.5) scale(1.7399999999999998) rotate(0)"><path d="M10 5L5 0L0 5L5 10L0 15L5 20L10 15L15 20L20 15L15 10L20 5L15 0L10 5Z" fill="#0b3352"/></g><g transform="translate(43.5,217.5) scale(1.7399999999999998) rotate(0)"><rect width="20" height="2" fill="#c2cdd9"/><rect y="4" width="20" height="2" fill="#c2cdd9"/><rect y="8" width="20" height="2" fill="#c2cdd9"/><rect y="12" width="20" height="2" fill="#c2cdd9"/><rect y="16" width="20" height="2" fill="#c2cdd9"/></g><g transform="translate(95.7,182.7) scale(3.4799999999999995) rotate(0)"><path d="M10 5L5 0L0 5L5 10L0 15L5 20L10 15L15 20L20 15L15 10L20 5L15 0L10 5Z" fill="#0a3250"/></g><g transform="translate(182.7,182.7) scale(3.4799999999999995) rotate(0)"><rect width="20" height="2" fill="#b7c2cf"/><rect y="4" width="20" height="2" fill="#b7c2cf"/><rect y="8" width="20" height="2" fill="#b7c2cf"/><rect y="12" width="20" height="2" fill="#b7c2cf"/><rect y="16" width="20" height="2" fill="#b7c2cf"/></g><g transform="translate(269.7,182.7) scale(3.4799999999999995) rotate(0)"><path d="M10 5L5 0L0 5L5 10L0 15L5 20L10 15L15 20L20 15L15 10L20 5L15 0L10 5Z" fill="#0b3b59"/></g><rect x="356.7" y="182.7" width="69.6" height="69.6" fill="#071330"/><g transform="translate(356.7,182.7) scale(1.7399999999999998) rotate(0)"><rect width="20" height="2" fill="#17233f"/><rect y="4" width="20" height="2" fill="#17233f"/><rect y="8" width="20" height="2" fill="#17233f"/><rect y="12" width="20" height="2" fill="#17233f"/><rect y="16" width="20" height="2" fill="#17233f"/></g><g transform="translate(391.5,182.7) scale(1.7399999999999998) rotate(0)"><path d="M10 5L5 0L0 5L5 10L0 15L5 20L10 15L15 20L20 15L15 10L20 5L15 0L10 5Z" fill="#b5c0cd"/></g><g transform="translate(356.7,217.5) scale(1.7399999999999998) rotate(0)"><rect width="20" height="2" fill="#424e65"/><rect y="4" width="20" height="2" fill="#424e65"/><rect y="8" width="20" height="2" fill="#424e65"/><rect y="12" width="20" height="2" fill="#424e65"/><rect y="16" width="20" height="2" fill="#424e65"/></g><g transform="translate(391.5,217.5) scale(1.7399999999999998) rotate(0)"><rect width="20" height="2" fill="#424e65"/><rect y="4" width="20" height="2" fill="#424e65"/><rect y="8" width="20" height="2" fill="#424e65"/><rect y="12" width="20" height="2" fill="#424e65"/><rect y="16" width="20" height="2" fill="#424e65"/></g><g transform="translate(443.7,182.7) scale(3.4799999999999995) rotate(0)"><path d="M10 5L5 0L0 5L5 10L0 15L5 20L10 15L15 20L20 15L15 10L20 5L15 0L10 5Z" fill="#2b3751"/></g><g transform="translate(530.7,182.7) scale(3.4799999999999995) rotate(0)"><rect width="20" height="2" fill="#bbc6d3"/><rect y="4" width="20" height="2" fill="#bbc6d3"/><rect y="8" width="20" height="2" fill="#bbc6d3"/><rect y="12" width="20" height="2" fill="#bbc6d3"/><rect y="16" width="20" height="2" fill="#bbc6d3"/></g><g transform="translate(617.7,182.7) scale(3.4799999999999995) rotate(0)"><path d="M10 5L5 0L0 5L5 10L0 15L5 20L10 15L15 20L20 15L15 10L20 5L15 0L10 5Z" fill="#081e3c"/></g><g transform="translate(704.7,182.7) scale(3.4799999999999995) rotate(0)"><path d="M10 5L5 0L0 5L5 10L0 15L5 20L10 15L15 20L20 15L15 10L20 5L15 0L10 5Z" fill="#8893a5"/></g><rect x="791.7" y="182.7" width="69.6" height="69.6" fill="#071330"/><g transform="translate(791.7,182.7) scale(1.7399999999999998) rotate(0)"><rect width="20" height="2" fill="#232f49"/><rect y="4" width="20" height="2" fill="#232f49"/><rect y="8" width="20" height="2" fill="#232f49"/><rect y="12" width="20" height="2" fill="#232f49"/><rect y="16" width="20" height="2" fill="#232f49"/></g><g transform="translate(826.5,182.7) scale(1.7399999999999998) rotate(0)"><path d="M10 5L5 0L0 5L5 10L0 15L5 20L10 15L15 20L20 15L15 10L20 5L15 0L10 5Z" fill="#1b2742"/></g><g transform="translate(791.7,217.5) scale(1.7399999999999998) rotate(0)"><rect width="20" height="2" fill="#7b8699"/><rect y="4" width="20" height="2" fill="#7b8699"/><rect y="8" width="20" height="2" fill="#7b8699"/><rect y="12" width="20" height="2" fill="#7b8699"/><rect y="16" width="20" height="2" fill="#7b8699"/></g><g transform="translate(826.5,217.5) scale(1.7399999999999998) rotate(0)"><path d="M10 5L5 0L0 5L5 10L0 15L5 20L10 15L15 20L20 15L15 10L20 5L15 0L10 5Z" fill="#0a2f4d"/></g><rect x="8.700000000000001" y="269.7" width="69.6" height="69.6" fill="#071330"/><g transform="translate(8.7,269.7) scale(1.7399999999999998) rotate(0)"><rect width="20" height="2" fill="#25314b"/><rect y="4" width="20" height="2" fill="#25314b"/><rect y="8" width="20" height="2" fill="#25314b"/><rect y="12" width="20" height="2" fill="#25314b"/><rect y="16" width="20" height="2" fill="#25314b"/></g><g transform="translate(43.5,269.7) scale(1.7399999999999998) rotate(0)"><path d="M10 5L5 0L0 5L5 10L0 15L5 20L10 15L15 20L20 15L15 10L20 5L15 0L10 5Z" fill="#081d3b"/></g><g transform="translate(8.7,304.5) scale(1.7399999999999998) rotate(0)"><path d="M10 5L5 0L0 5L5 10L0 15L5 20L10 15L15 20L20 15L15 10L20 5L15 0L10 5Z" fill="#576378"/></g><g transform="translate(43.5,304.5) scale(1.7399999999999998) rotate(0)"><path d="M10 5L5 0L0 5L5 10L0 15L5 20L10 15L15 20L20 15L15 10L20 5L15 0L10 5Z" fill="#081835"/></g><g transform="translate(95.7,269.7) scale(3.4799999999999995) rotate(0)"><path d="M10 5L5 0L0 5L5 10L0 15L5 20L10 15L15 20L20 15L15 10L20 5L15 0L10 5Z" fill="#4f5a71"/></g><g transform="translate(182.7,269.7) scale(3.4799999999999995) rotate(0)"><rect width="20" height="2" fill="#16223d"/><rect y="4" width="20" height="2" fill="#16223d"/><rect y="8" width="20" height="2" fill="#16223d"/><rect y="12" width="20" height="2" fill="#16223d"/><rect y="16" width="20" height="2" fill="#16223d"/></g><rect x="269.7" y="269.7" width="69.6" height="69.6" fill="#071330"/><g transform="translate(269.7,269.7) scale(1.7399999999999998) rotate(0)"><path d="M10 5L5 0L0 5L5 10L0 15L5 20L10 15L15 20L20 15L15 10L20 5L15 0L10 5Z" fill="#39455d"/></g><g transform="translate(304.5,269.7) scale(1.7399999999999998) rotate(0)"><rect width="20" height="2" fill="#081a37"/><rect y="4" width="20" height="2" fill="#081a37"/><rect y="8" width="20" height="2" fill="#081a37"/><rect y="12" width="20" height="2" fill="#081a37"/><rect y="16" width="20" height="2" fill="#081a37"/></g><g transform="translate(269.7,304.5) scale(1.7399999999999998) rotate(0)"><path d="M10 5L5 0L0 5L5 10L0 15L5 20L10 15L15 20L20 15L15 10L20 5L15 0L10 5Z" fill="#0a2d4b"/></g><g transform="translate(304.5,304.5) scale(1.7399999999999998) rotate(0)"><path d="M10 5L5 0L0 5L5 10L0 15L5 20L10 15L15 20L20 15L15 10L20 5L15 0L10 5Z" fill="#313d56"/></g><g transform="translate(356.7,269.7) scale(3.4799999999999995) rotate(0)"><path d="M10 5L5 0L0 5L5 10L0 15L5 20L10 15L15 20L20 15L15 10L20 5L15 0L10 5Z" fill="#566177"/></g><g transform="translate(443.7,269.7) scale(3.4799999999999995) rotate(0)"><path d="M10 5L5 0L0 5L5 10L0 15L5 20L10 15L15 20L20 15L15 10L20 5L15 0L10 5Z" fill="#071633"/></g><g transform="translate(530.7,269.7) scale(3.4799999999999995) rotate(0)"><rect width="20" height="2" fill="#1a2641"/><rect y="4" width="20" height="2" fill="#1a2641"/><rect y="8" width="20" height="2" fill="#1a2641"/><rect y="12" width="20" height="2" fill="#1a2641"/><rect y="16" width="20" height="2" fill="#1a2641"/></g><g transform="translate(617.7,269.7) scale(3.4799999999999995) rotate(0)"><path d="M10 5L5 0L0 5L5 10L0 15L5 20L10 15L15 20L20 15L15 10L20 5L15 0L10 5Z" fill="#424e65"/></g><g transform="translate(704.7,269.7) scale(3.4799999999999995) rotate(0)"><path d="M10 5L5 0L0 5L5 10L0 15L5 20L10 15L15 20L20 15L15 10L20 5L15 0L10 5Z" fill="#bbc6d3"/></g><rect x="791.7" y="269.7" width="69.6" height="69.6" fill="#071330"/><g transform="translate(791.7,269.7) scale(1.7399999999999998) rotate(0)"><rect width="20" height="2" fill="#09223f"/><rect y="4" width="20" height="2" fill="#09223f"/><rect y="8" width="20" height="2" fill="#09223f"/><rect y="12" width="20" height="2" fill="#09223f"/><rect y="16" width="20" height="2" fill="#09223f"/></g><g transform="translate(826.5,269.7) scale(1.7399999999999998) rotate(0)"><path d="M10 5L5 0L0 5L5 10L0 15L5 20L10 15L15 20L20 15L15 10L20 5L15 0L10 5Z" fill="#566278"/></g><g transform="translate(791.7,304.5) scale(1.7399999999999998) rotate(0)"><rect width="20" height="2" fill="#758094"/><rect y="4" width="20" height="2" fill="#758094"/><rect y="8" width="20" height="2" fill="#758094"/><rect y="12" width="20" height="2" fill="#758094"/><rect y="16" width="20" height="2" fill="#758094"/></g><g transform="translate(826.5,304.5) scale(1.7399999999999998) rotate(0)"><path d="M10 5L5 0L0 5L5 10L0 15L5 20L10 15L15 20L20 15L15 10L20 5L15 0L10 5Z" fill="#0e1a36"/></g><g transform="translate(8.7,356.7) scale(3.4799999999999995) rotate(0)"><rect width="20" height="2" fill="#adb8c6"/><rect y="4" width="20" height="2" fill="#adb8c6"/><rect y="8" width="20" height="2" fill="#adb8c6"/><rect y="12" width="20" height="2" fill="#adb8c6"/><rect y="16" width="20" height="2" fill="#adb8c6"/></g><g transform="translate(95.7,356.7) scale(3.4799999999999995) rotate(0)"><rect width="20" height="2" fill="#0a2d4b"/><rect y="4" width="20" height="2" fill="#0a2d4b"/><rect y="8" width="20" height="2" fill="#0a2d4b"/><rect y="12" width="20" height="2" fill="#0a2d4b"/><rect y="16" width="20" height="2" fill="#0a2d4b"/></g><g transform="translate(182.7,356.7) scale(3.4799999999999995) rotate(0)"><path d="M10 5L5 0L0 5L5 10L0 15L5 20L10 15L15 20L20 15L15 10L20 5L15 0L10 5Z" fill="#0b3554"/></g><g transform="translate(269.7,356.7) scale(3.4799999999999995) rotate(0)"><rect width="20" height="2" fill="#5e6a7f"/><rect y="4" width="20" height="2" fill="#5e6a7f"/><rect y="8" width="20" height="2" fill="#5e6a7f"/><rect y="12" width="20" height="2" fill="#5e6a7f"/><rect y="16" width="20" height="2" fill="#5e6a7f"/></g><g transform="translate(356.7,356.7) scale(3.4799999999999995) rotate(0)"><path d="M10 5L5 0L0 5L5 10L0 15L5 20L10 15L15 20L20 15L15 10L20 5L15 0L10 5Z" fill="#bec9d6"/></g><g transform="translate(443.7,356.7) scale(3.4799999999999995) rotate(0)"><rect width="20" height="2" fill="#0c405f"/><rect y="4" width="20" height="2" fill="#0c405f"/><rect y="8" width="20" height="2" fill="#0c405f"/><rect y="12" width="20" height="2" fill="#0c405f"/><rect y="16" width="20" height="2" fill="#0c405f"/></g><g transform="translate(530.7,356.7) scale(3.4799999999999995) rotate(0)"><rect width="20" height="2" fill="#0a2f4d"/><rect y="4" width="20" height="2" fill="#0a2f4d"/><rect y="8" width="20" height="2" fill="#0a2f4d"/><rect y="12" width="20" height="2" fill="#0a2f4d"/><rect y="16" width="20" height="2" fill="#0a2f4d"/></g><g transform="translate(617.7,356.7) scale(3.4799999999999995) rotate(0)"><rect width="20" height="2" fill="#2d3953"/><rect y="4" width="20" height="2" fill="#2d3953"/><rect y="8" width="20" height="2" fill="#2d3953"/><rect y="12" width="20" height="2" fill="#2d3953"/><rect y="16" width="20" height="2" fill="#2d3953"/></g><rect x="704.7" y="356.7" width="69.6" height="69.6" fill="#071330"/><g transform="translate(704.7,356.7) scale(1.7399999999999998) rotate(0)"><path d="M10 5L5 0L0 5L5 10L0 15L5 20L10 15L15 20L20 15L15 10L20 5L15 0L10 5Z" fill="#0a2e4d"/></g><g transform="translate(739.5,356.7) scale(1.7399999999999998) rotate(0)"><rect width="20" height="2" fill="#636e83"/><rect y="4" width="20" height="2" fill="#636e83"/><rect y="8" width="20" height="2" fill="#636e83"/><rect y="12" width="20" height="2" fill="#636e83"/><rect y="16" width="20" height="2" fill="#636e83"/></g><g transform="translate(704.7,391.5) scale(1.7399999999999998) rotate(0)"><rect width="20" height="2" fill="#c1ccd8"/><rect y="4" width="20" height="2" fill="#c1ccd8"/><rect y="8" width="20" height="2" fill="#c1ccd8"/><rect y="12" width="20" height="2" fill="#c1ccd8"/><rect y="16" width="20" height="2" fill="#c1ccd8"/></g><g transform="translate(739.5,391.5) scale(1.7399999999999998) rotate(0)"><rect width="20" height="2" fill="#0b3654"/><rect y="4" width="20" height="2" fill="#0b3654"/><rect y="8" width="20" height="2" fill="#0b3654"/><rect y="12" width="20" height="2" fill="#0b3654"/><rect y="16" width="20" height="2" fill="#0b3654"/></g><g transform="translate(791.7,356.7) scale(3.4799999999999995) rotate(0)"><rect width="20" height="2" fill="#a2adbc"/><rect y="4" width="20" height="2" fill="#a2adbc"/><rect y="8" width="20" height="2" fill="#a2adbc"/><rect y="12" width="20" height="2" fill="#a2adbc"/><rect y="16" width="20" height="2" fill="#a2adbc"/></g><g transform="translate(8.7,443.7) scale(3.4799999999999995) rotate(0)"><rect width="20" height="2" fill="#081f3d"/><rect y="4" width="20" height="2" fill="#081f3d"/><rect y="8" width="20" height="2" fill="#081f3d"/><rect y="12" width="20" height="2" fill="#081f3d"/><rect y="16" width="20" height="2" fill="#081f3d"/></g><rect x="95.7" y="443.7" width="69.6" height="69.6" fill="#071330"/><g transform="translate(95.7,443.7) scale(1.7399999999999998) rotate(0)"><path d="M10 5L5 0L0 5L5 10L0 15L5 20L10 15L15 20L20 15L15 10L20 5L15 0L10 5Z" fill="#616d81"/></g><g transform="translate(130.5,443.7) scale(1.7399999999999998) rotate(0)"><path d="M10 5L5 0L0 5L5 10L0 15L5 20L10 15L15 20L20 15L15 10L20 5L15 0L10 5Z" fill="#0b1734"/></g><g transform="translate(95.7,478.5) scale(1.7399999999999998) rotate(0)"><rect width="20" height="2" fill="#0b3c5a"/><rect y="4" width="20" height="2" fill="#0b3c5a"/><rect y="8" width="20" height="2" fill="#0b3c5a"/><rect y="12" width="20" height="2" fill="#0b3c5a"/><rect y="16" width="20" height="2" fill="#0b3c5a"/></g><g transform="translate(130.5,478.5) scale(1.7399999999999998) rotate(0)"><rect width="20" height="2" fill="#adb8c6"/><rect y="4" width="20" height="2" fill="#adb8c6"/><rect y="8" width="20" height="2" fill="#adb8c6"/><rect y="12" width="20" height="2" fill="#adb8c6"/><rect y="16" width="20" height="2" fill="#adb8c6"/></g><g transform="translate(182.7,443.7) scale(3.4799999999999995) rotate(0)"><path d="M10 5L5 0L0 5L5 10L0 15L5 20L10 15L15 20L20 15L15 10L20 5L15 0L10 5Z" fill="#081c3a"/></g><g transform="translate(269.7,443.7) scale(3.4799999999999995) rotate(0)"><rect width="20" height="2" fill="#7a8598"/><rect y="4" width="20" height="2" fill="#7a8598"/><rect y="8" width="20" height="2" fill="#7a8598"/><rect y="12" width="20" height="2" fill="#7a8598"/><rect y="16" width="20" height="2" fill="#7a8598"/></g><g transform="translate(356.7,443.7) scale(3.4799999999999995) rotate(0)"><rect width="20" height="2" fill="#0a2e4d"/><rect y="4" width="20" height="2" fill="#0a2e4d"/><rect y="8" width="20" height="2" fill="#0a2e4d"/><rect y="12" width="20" height="2" fill="#0a2e4d"/><rect y="16" width="20" height="2" fill="#0a2e4d"/></g><rect x="443.7" y="443.7" width="69.6" height="69.6" fill="#071330"/><g transform="translate(443.7,443.7) scale(1.7399999999999998) rotate(0)"><rect width="20" height="2" fill="#576278"/><rect y="4" width="20" height="2" fill="#576278"/><rect y="8" width="20" height="2" fill="#576278"/><rect y="12" width="20" height="2" fill="#576278"/><rect y="16" width="20" height="2" fill="#576278"/></g><g transform="translate(478.5,443.7) scale(1.7399999999999998) rotate(0)"><rect width="20" height="2" fill="#0b3654"/><rect y="4" width="20" height="2" fill="#0b3654"/><rect y="8" width="20" height="2" fill="#0b3654"/><rect y="12" width="20" height="2" fill="#0b3654"/><rect y="16" width="20" height="2" fill="#0b3654"/></g><g transform="translate(443.7,478.5) scale(1.7399999999999998) rotate(0)"><rect width="20" height="2" fill="#647084"/><rect y="4" width="20" height="2" fill="#647084"/><rect y="8" width="20" height="2" fill="#647084"/><rect y="12" width="20" height="2" fill="#647084"/><rect y="16" width="20" height="2" fill="#647084"/></g><g transform="translate(478.5,478.5) scale(1.7399999999999998) rotate(0)"><rect width="20" height="2" fill="#8e99aa"/><rect y="4" width="20" height="2" fill="#8e99aa"/><rect y="8" width="20" height="2" fill="#8e99aa"/><rect y="12" width="20" height="2" fill="#8e99aa"/><rect y="16" width="20" height="2" fill="#8e99aa"/></g><g transform="translate(530.7,443.7) scale(3.4799999999999995) rotate(0)"><path d="M10 5L5 0L0 5L5 10L0 15L5 20L10 15L15 20L20 15L15 10L20 5L15 0L10 5Z" fill="#0d1936"/></g><g transform="translate(617.7,443.7) scale(3.4799999999999995) rotate(0)"><rect width="20" height="2" fill="#333f58"/><rect y="4" width="20" height="2" fill="#333f58"/><rect y="8" width="20" height="2" fill="#333f58"/><rect y="12" width="20" height="2" fill="#333f58"/><rect y="16" width="20" height="2" fill="#333f58"/></g><rect x="704.7" y="443.7" width="69.6" height="69.6" fill="#071330"/><g transform="translate(704.7,443.7) scale(1.7399999999999998) rotate(0)"><rect width="20" height="2" fill="#a3aebd"/><rect y="4" width="20" height="2" fill="#a3aebd"/><rect y="8" width="20" height="2" fill="#a3aebd"/><rect y="12" width="20" height="2" fill="#a3aebd"/><rect y="16" width="20" height="2" fill="#a3aebd"/></g><g transform="translate(739.5,443.7) scale(1.7399999999999998) rotate(0)"><path d="M10 5L5 0L0 5L5 10L0 15L5 20L10 15L15 20L20 15L15 10L20 5L15 0L10 5Z" fill="#1c2843"/></g><g transform="translate(704.7,478.5) scale(1.7399999999999998) rotate(0)"><path d="M10 5L5 0L0 5L5 10L0 15L5 20L10 15L15 20L20 15L15 10L20 5L15 0L10 5Z" fill="#081936"/></g><g transform="translate(739.5,478.5) scale(1.7399999999999998) rotate(0)"><path d="M10 5L5 0L0 5L5 10L0 15L5 20L10 15L15 20L20 15L15 10L20 5L15 0L10 5Z" fill="#09223f"/></g><g transform="translate(791.7,443.7) scale(3.4799999999999995) rotate(0)"><rect width="20" height="2" fill="#08213e"/><rect y="4" width="20" height="2" fill="#08213e"/><rect y="8" width="20" height="2" fill="#08213e"/><rect y="12" width="20" height="2" fill="#08213e"/><rect y="16" width="20" height="2" fill="#08213e"/></g></g></svg>